<?xml version="1.0" standalone="no"?><!DOCTYPE svg PUBLIC "-//W3C//DTD SVG 1.1//EN" "http://www.w3.org/Graphics/SVG/1.1/DTD/svg11.dtd"><svg t="1718885507717" class="icon" viewBox="0 0 1024 1024" version="1.1" xmlns="http://www.w3.org/2000/svg" p-id="25867" xmlns:xlink="http://www.w3.org/1999/xlink" width="32" height="32"><path d="M496 251.008c-19.456 0-34.304-1.28-48.896 0.256-94.72 9.6-170.496 50.304-201.728 144.256-33.664 100.864-21.376 198.272 56.96 276.096 82.688 81.92 185.984 94.336 295.424 75.264-151.168 0-235.904-105.728-258.048-191.232-31.488-121.984 16.256-216.704 156.288-304.64z" fill="#515151" p-id="25868"></path><path d="M589.696 713.472c23.68-2.432 47.616-3.584 71.168-7.424 66.304-10.752 116.224-45.312 144.128-107.136 5.248-11.52 4.224-27.904 1.152-40.96-10.752-47.232-37.888-67.072-89.728-62.336-60.544 5.504-121.984 1.28-182.656 1.28v81.536h194.432c-30.336 67.2-86.4 97.28-138.496 135.04zM423.04 219.264c4.736 1.664 5.888 2.432 6.912 2.304 134.656-14.592 233.088 34.304 287.104 162.56 2.688 6.272 12.8 12.672 19.968 13.184 24.448 1.664 49.152 0.64 74.112 0.64-20.608-146.432-232.32-243.584-388.096-178.688z" fill="#515151" p-id="25869"></path><path d="M496 251.008C355.968 338.944 308.224 433.664 339.712 555.52c22.016 85.504 106.88 191.36 258.048 191.232-109.44 19.072-212.736 6.784-295.424-75.264-78.464-77.824-90.624-175.232-56.96-276.096 31.36-93.952 107.136-134.656 201.728-144.256 14.464-1.408 29.44-0.128 48.896-0.128z" p-id="25870" fill="#515151"></path><path d="M589.696 713.472c52.096-37.632 108.16-67.84 138.496-134.912H533.76v-81.536c60.8 0 122.24 4.224 182.656-1.28 51.84-4.736 78.976 15.104 89.728 62.336 2.944 13.056 4.096 29.312-1.152 40.96-27.904 61.824-77.824 96.384-144.128 107.136-23.552 3.712-47.488 4.864-71.168 7.296zM423.04 219.264c155.776-65.024 367.36 32.128 388.096 178.816-24.96 0-49.664 1.024-74.112-0.64-7.04-0.512-17.28-6.912-19.968-13.184C663.04 256 564.608 206.976 429.952 221.696c-1.024 0.128-2.176-0.768-6.912-2.432z" p-id="25871" fill="#515151"></path></svg>