<?xml version="1.0" standalone="no"?><!DOCTYPE svg PUBLIC "-//W3C//DTD SVG 1.1//EN" "http://www.w3.org/Graphics/SVG/1.1/DTD/svg11.dtd"><svg t="1718885440364" class="icon" viewBox="0 0 1024 1024" version="1.1" xmlns="http://www.w3.org/2000/svg" p-id="22890" xmlns:xlink="http://www.w3.org/1999/xlink" width="32" height="32"><path d="M399.36 322.56c2.56-7.68 2.56-15.36 2.56-23.04h294.4c5.12 0 10.24 2.56 12.8 10.24 2.56 7.68 2.56 17.92 5.12 25.6 7.68 84.48-56.32 163.84-140.8 174.08-79.36 10.24-145.92-35.84-168.96-102.4-2.56-2.56 0-7.68 2.56-10.24 12.8-25.6 10.24-56.32-7.68-74.24z" p-id="22891" fill="#d81e06"></path><path d="M829.44 660.48c-40.96-81.92-102.4-133.12-256-133.12h-30.72c-58.88 0-102.4 7.68-138.24 20.48h-2.56l-145.92 20.48c-10.24 2.56-17.92-10.24-12.8-20.48l143.36-179.2c17.92-20.48 12.8-51.2-7.68-69.12-20.48-17.92-51.2-12.8-69.12 7.68L69.12 606.72c-2.56 2.56-5.12 5.12-5.12 10.24l-17.92 20.48c-12.8 15.36-15.36 33.28-5.12 51.2 7.68 17.92 25.6 28.16 43.52 28.16l271.36 2.56c5.12 0 10.24 5.12 12.8 10.24 2.56 23.04 5.12 46.08 5.12 51.2l-2.56 176.64c0 7.68 5.12 12.8 12.8 12.8h350.72c7.68 0 12.8-5.12 12.8-12.8l-7.68-176.64 20.48 179.2c0 5.12 5.12 10.24 12.8 10.24h87.04c7.68 0 12.8-7.68 12.8-12.8-15.36-148.48-30.72-273.92-43.52-296.96z m-337.92 307.2h-51.2c-10.24 0-15.36-10.24-10.24-17.92l230.4-389.12c2.56-5.12 7.68-7.68 12.8-5.12 15.36 2.56 30.72 7.68 43.52 15.36 7.68 2.56 10.24 12.8 5.12 17.92l-222.72 376.32s-2.56 2.56-7.68 2.56z" p-id="22892" fill="#d81e06"></path><path d="M875.52 486.4l-5.12-5.12 79.36-79.36 5.12 5.12 35.84-35.84-17.92-17.92-35.84 35.84 2.56 2.56-79.36 79.36-15.36-15.36-25.6-25.6-12.8 12.8 15.36 15.36c5.12 5.12 5.12 12.8 0 17.92l-64 64-12.8-2.56-7.68 7.68c15.36 7.68 33.28 17.92 46.08 30.72 5.12 5.12 12.8 5.12 17.92 0l74.24-89.6z m-104.96-192c-2.56-7.68 2.56-17.92 2.56-25.6 0-104.96-84.48-202.24-189.44-215.04h-40.96-2.56c-104.96 15.36-184.32 99.84-186.88 212.48 0 7.68 2.56 17.92 2.56 25.6-2.56 15.36-17.92 23.04-20.48 38.4 0 28.16 25.6 40.96 51.2 48.64 10.24 2.56 17.92-5.12 17.92-15.36-5.12-17.92-7.68-38.4-12.8-56.32-2.56-7.68 2.56-12.8 7.68-15.36 92.16-25.6 227.84-25.6 325.12-2.56 7.68 2.56 10.24 7.68 10.24 15.36-5.12 20.48-10.24 40.96-12.8 61.44-2.56 10.24 7.68 17.92 15.36 15.36 25.6-7.68 56.32-20.48 56.32-48.64-2.56-15.36-20.48-25.6-23.04-38.4z m-168.96-71.68L568.32 204.8c-2.56-2.56-7.68-2.56-12.8 0l-33.28 17.92 7.68-35.84c0-5.12 0-7.68-2.56-10.24l-25.6-25.6 35.84-7.68c5.12 0 7.68-2.56 10.24-7.68l15.36-30.72 15.36 30.72c2.56 5.12 5.12 7.68 10.24 7.68l35.84 5.12-25.6 25.6c-2.56 2.56-5.12 7.68-2.56 10.24l5.12 38.4z" p-id="22893" fill="#d81e06"></path></svg>