<?xml version="1.0" standalone="no"?><!DOCTYPE svg PUBLIC "-//W3C//DTD SVG 1.1//EN" "http://www.w3.org/Graphics/SVG/1.1/DTD/svg11.dtd"><svg t="1718885395662" class="icon" viewBox="0 0 1024 1024" version="1.1" xmlns="http://www.w3.org/2000/svg" p-id="21727" xmlns:xlink="http://www.w3.org/1999/xlink" width="32" height="32"><path d="M389.13024 632.09472c0-40.9088-34.47808-72.94976-78.4896-72.94976s-78.47936 32.04096-78.47936 72.94976V773.8368h156.96896V632.09472z m-78.4896-26.99264c18.28864 0 32.6144 11.85792 32.6144 27.00288v95.87712h-65.2288v-95.87712c0-15.14496 14.32576-27.00288 32.6144-27.00288z" fill="#FC9220" p-id="21728"></path><path d="M876.544 865.28h-19.67104l-0.14336-564.93056a23.0912 23.0912 0 0 0-12.25728-26.35776L460.87168 88.064a18.40128 18.40128 0 0 0-4.77184-1.62816 22.90688 22.90688 0 0 0-7.74144-1.37216 22.9888 22.9888 0 0 0-22.9376 22.9888V354.0992L152.3712 499.456a14.86848 14.86848 0 0 0-1.90464 1.13664 23.04 23.04 0 0 0-11.68384 20.02944V865.28h-25.27232a23.00928 23.00928 0 0 0-22.9888 22.96832 23.00928 23.00928 0 0 0 22.9888 22.9888H876.544a23.01952 23.01952 0 0 0 22.9888-22.9888A23.01952 23.01952 0 0 0 876.544 865.28zM642.07872 386.92864c-44.81024 0-81.28512 32.72704-81.28512 72.94976v404.38784h-89.50784v-720.0768L811.008 308.8384v555.43808h-87.63392V459.88864c-0.01024-40.23296-36.47488-72.96-81.29536-72.96z m-35.42016 72.96c0-14.63296 16.20992-27.00288 35.40992-27.00288s35.40992 12.36992 35.40992 27.00288v398.78656h-70.83008V459.88864z m-181.248-53.7088v458.09664h-240.7424V534.31296l240.7424-128.13312z" fill="#FC9220" p-id="21729"></path></svg>