<?xml version="1.0" standalone="no"?><!DOCTYPE svg PUBLIC "-//W3C//DTD SVG 1.1//EN" "http://www.w3.org/Graphics/SVG/1.1/DTD/svg11.dtd"><svg t="1718885320648" class="icon" viewBox="0 0 1024 1024" version="1.1" xmlns="http://www.w3.org/2000/svg" p-id="19648" xmlns:xlink="http://www.w3.org/1999/xlink" width="32" height="32"><path d="M168.96 568.32h102.4v-30.72H179.2c-10.24 0-20.48-5.12-25.6-15.36-10.24-35.84-25.6-66.56-35.84-102.4h153.6v-35.84H133.12c-20.48 5.12-35.84-10.24-40.96-25.6l-30.72-92.16h179.2l46.08-15.36c40.96-15.36 87.04-25.6 133.12-35.84 97.28-20.48 194.56-10.24 286.72 20.48 5.12 0 10.24 5.12 15.36 5.12 30.72 20.48 71.68 30.72 107.52 20.48h138.24c-15.36 40.96-25.6 76.8-40.96 112.64 0 5.12-15.36 10.24-20.48 10.24h-148.48v30.72h153.6l-40.96 122.88h-112.64v30.72h102.4c-15.36 40.96-25.6 76.8-40.96 112.64 0 5.12-15.36 10.24-20.48 5.12-30.72 0-66.56 5.12-92.16 25.6-56.32 35.84-117.76 66.56-174.08 102.4-15.36 10.24-30.72 10.24-46.08 0-61.44-35.84-122.88-71.68-179.2-107.52-20.48-15.36-51.2-25.6-76.8-20.48-10.24 5.12-25.6-5.12-25.6-15.36V665.6c-10.24-30.72-25.6-61.44-35.84-97.28z m445.44 15.36c-5.12-30.72-10.24-56.32-15.36-76.8 0-10.24 5.12-25.6 10.24-35.84 15.36-20.48 35.84-35.84 56.32-56.32-30.72-5.12-51.2-10.24-76.8-10.24-15.36 0-30.72-10.24-35.84-25.6-10.24-20.48-20.48-40.96-30.72-66.56-10.24 20.48-20.48 46.08-30.72 66.56-5.12 10.24-15.36 15.36-25.6 20.48-25.6 5.12-51.2 10.24-81.92 15.36 20.48 20.48 35.84 40.96 56.32 56.32 10.24 10.24 15.36 25.6 10.24 35.84-5.12 25.6-10.24 46.08-15.36 76.8 25.6-15.36 51.2-25.6 71.68-35.84 10.24-5.12 20.48-5.12 30.72 0 30.72 10.24 51.2 20.48 76.8 35.84z" p-id="19649" fill="#d81e06"></path></svg>