<?xml version="1.0" standalone="no"?><!DOCTYPE svg PUBLIC "-//W3C//DTD SVG 1.1//EN" "http://www.w3.org/Graphics/SVG/1.1/DTD/svg11.dtd"><svg t="1718885244053" class="icon" viewBox="0 0 2057 1024" version="1.1" xmlns="http://www.w3.org/2000/svg" p-id="15728" xmlns:xlink="http://www.w3.org/1999/xlink" width="64.28125" height="32"><path d="M0 362.958904h454.136986v-70.136986H73.643836V227.945205h380.49315v-68.383561H20.164384v-65.753425h433.972602V0h82.410959v93.808219H964.383562v65.753425H536.547945v68.383561h355.068493v64.876713h-350.684931v70.136986h449.753425v65.753425H0z m208.657534 648.767123h-81.534246V490.958904h732.931507v406.794521c0 71.890411-42.958904 107.835616-127.123288 106.958904H577.753425c0-21.917808-7.890411-48.219178-15.780822-78.90411 55.232877 0 107.835616 6.136986 159.561644 6.136986 37.69863 0 56.109589-15.780822 56.109589-47.342465v-58.739726H208.657534z m568.986302-455.013698H208.657534v71.013698h568.986302zM208.657534 762.739726h568.986302v-71.013699H208.657534zM1038.90411 673.315068h164.821917V378.739726h363.835617V196.383562h-301.589041a1595.616438 1595.616438 0 0 1-155.178082 229.69863 599.671233 599.671233 0 0 0-64-56.986302A1129.205479 1129.205479 0 0 0 1265.972603 0l87.671233 23.671233c-14.90411 34.191781-29.808219 66.630137-45.589041 98.191781H2016.438356v74.520548h-365.589041v182.356164h343.671233v71.890411h-343.671233v222.684931h406.794521v73.643836h-406.794521v277.041096h-83.287671V746.958904h-526.027397z m246.356164 0h282.30137V450.630137h-282.30137z" fill="#00F0FF" p-id="15729"></path></svg>