<?xml version="1.0" standalone="no"?><!DOCTYPE svg PUBLIC "-//W3C//DTD SVG 1.1//EN" "http://www.w3.org/Graphics/SVG/1.1/DTD/svg11.dtd"><svg t="1718885082973" class="icon" viewBox="0 0 1024 1024" version="1.1" xmlns="http://www.w3.org/2000/svg" p-id="8537" xmlns:xlink="http://www.w3.org/1999/xlink" width="32" height="32"><path d="M512 512m-512 0a512 512 0 1 0 1024 0 512 512 0 1 0-1024 0Z" fill="#e6e6e6" p-id="8538"></path><path d="M245.76 383.249067l34.133333 16.110933s-11.127467 37.137067-17.6128 51.2-42.734933 84.3776-52.0192 99.669333-25.6 48.810667-47.786666 67.7888-47.377067 17.339733-57.685334 17.544534a140.151467 140.151467 0 0 1-28.194133-4.437334s41.710933-5.666133 57.480533-16.520533a139.605333 139.605333 0 0 0 31.197867-30.3104 376.968533 376.968533 0 0 0 20.48-35.908267L245.76 415.266133zM223.300267 544.9728a34.952533 34.952533 0 0 1 13.653333 7.850667 221.184 221.184 0 0 1 17.749333 20.48c2.389333 3.4816 13.175467 18.8416 15.9744 22.7328a32.017067 32.017067 0 0 0 24.234667 13.653333 80.896 80.896 0 0 0 25.941333-6.826667 37.546667 37.546667 0 0 1 15.633067 0s-16.861867 22.186667-35.6352 28.535467-31.3344 0.8192-36.181333-4.7104a95.573333 95.573333 0 0 1-16.042667-25.941333s-8.6016-23.210667-12.151467-31.744a124.245333 124.245333 0 0 0-8.874666-18.432 20.002133 20.002133 0 0 0-4.3008-5.597867zM391.918933 518.826667s16.7936 15.291733 19.387734 26.760533a256.068267 256.068267 0 0 1 1.160533 43.349333s16.9984-14.199467 22.391467-7.509333-0.887467 21.7088-13.653334 30.1056a278.391467 278.391467 0 0 1-27.989333 15.906133s-9.557333 3.754667-12.356267 0a38.2976 38.2976 0 0 1-5.802666-19.8656 113.4592 113.4592 0 0 1 6.144-40.96 299.076267 299.076267 0 0 0 10.717866-47.786666z" fill="#d81e06" p-id="8539"></path><path d="M397.312 472.200533a47.786667 47.786667 0 0 0 27.8528-4.096c12.9024-6.826667 37.000533-26.2144 58.914133-31.266133s31.402667-1.6384 33.041067 3.549867-10.6496 30.3104-31.744 40.96 1.8432 12.561067 3.754667 13.653333-0.887467 5.870933-4.778667 9.4208A61.986133 61.986133 0 0 1 463.0528 518.826667a182.0672 182.0672 0 0 1-25.531733 1.706666s8.3968 21.367467 12.834133 21.367467 8.874667-14.404267 9.557333-16.861867a7.5776 7.5776 0 0 1 12.424534-1.365333c6.075733 5.256533 10.24 8.055467 4.642133 14.199467s-13.1072 13.653333-13.1072 13.653333a159.470933 159.470933 0 0 0 14.9504 34.133333c7.304533 9.762133 7.5776 12.014933 13.653333-2.4576A47.786667 47.786667 0 0 0 498.346667 559.786667s-0.8192-4.983467 1.501866-4.846934a16.110933 16.110933 0 0 1 10.513067 9.216c1.501867 4.9152-2.935467 54.613333-2.935467 54.613334s0 5.051733-10.103466 5.051733-19.797333-4.3008-30.1056-18.705067a336.008533 336.008533 0 0 1-21.845334-38.2976s-16.9984 8.738133-22.254933 5.7344 16.657067-19.2512 16.657067-19.2512-11.810133-16.247467-10.6496-30.856533a35.908267 35.908267 0 0 1 13.653333-28.603733c8.465067-6.826667 36.6592-30.446933 36.6592-30.446934s4.7104-4.5056 3.549867-5.597866-32.426667 19.6608-38.161067 23.552a32.631467 32.631467 0 0 1-23.210667 8.6016c-10.4448-1.092267-13.653333-3.140267-16.9984-6.826667a81.373867 81.373867 0 0 1-7.304533-10.922667zM702.532267 465.988267a37.137067 37.137067 0 0 0-28.8768-15.837867c-15.7696-0.477867-18.0224 1.297067-34.542934 12.0832s-42.871467 30.788267-45.192533 35.293867 5.051733 13.653333 7.7824 18.090666 10.513067 32.085333 2.798933 39.1168-15.5648-11.332267-17.339733-23.620266a99.464533 99.464533 0 0 0-8.738133-27.306667 11.195733 11.195733 0 0 0-7.7824-5.461333 360.311467 360.311467 0 0 1-4.027734 36.0448c-2.525867 11.810133-7.304533 35.6352-9.0112 40.96a133.3248 133.3248 0 0 0 0 42.871466c2.730667 11.264 11.741867 22.528 19.0464 22.528s15.018667-9.762133 21.777067-28.330666 6.280533-16.315733 9.557333-14.5408a152.1664 152.1664 0 0 0 30.788267 19.592533c14.336 5.461333 28.330667 22.050133 31.607467 22.254933s18.295467-16.520533 21.2992-30.788266 5.7344-80.964267 6.485333-87.722667 3.822933-31.1296 8.533333-37.614933 1.570133-11.127467-4.164266-17.6128zM652.629333 578.491733c0 4.778667 0 6.280533-8.874666 2.525867a56.661333 56.661333 0 0 1-22.528-19.797333 24.439467 24.439467 0 0 1-1.6384-6.144c0-7.509333 32.836267-3.140267 32.836266-3.140267z m4.9152-76.458666c-2.321067 12.424533 1.2288 20.48-2.048 21.230933s-21.435733-8.8064-33.109333-11.946667a30.788267 30.788267 0 0 1-16.861867-10.990933 115.029333 115.029333 0 0 0 32.426667-9.898667c12.151467-6.826667 21.162667-17.8176 24.849067-15.701333s-3.003733 14.9504-5.256534 27.306667zM856.814933 360.0384a23.483733 23.483733 0 0 1-0.4096 9.284267c-1.297067 2.594133-22.664533 29.764267-24.576 34.952533s0 9.284267-6.075733 12.765867-25.053867 7.7824-36.0448 11.605333-12.0832 8.669867-11.400533 9.557333 27.784533 7.9872 27.306666 10.990934a101.034667 101.034667 0 0 1-13.653333 16.9984 249.582933 249.582933 0 0 0 46.421333-23.688534c14.472533-11.264 27.306667-24.644267 28.8768-30.856533s-3.208533-11.264-0.4096-15.1552 18.158933-13.653333 16.861867-20.8896a23.552 23.552 0 0 0-18.568533-16.384c-9.147733-1.774933-8.328533 0.8192-8.328534 0.8192zM776.533333 487.6288c10.24-0.682667 20.48-14.609067 39.7312-24.9856s28.945067-8.328533 36.6592-6.826667 8.3968 6.212267 6.075734 9.489067a39.389867 39.389867 0 0 1-21.2992 19.387733 127.931733 127.931733 0 0 1-45.192534 6.075734 73.181867 73.181867 0 0 1-15.9744-3.140267zM802.474667 501.009067c0-3.549867 2.116267-7.441067 6.826666-5.3248s8.6016 9.966933 13.653334 11.810133 15.36 0 15.223466 6.826667-0.546133 7.714133-4.846933 11.0592-12.6976 9.898667-11.127467 14.5408 4.642133 0.8192 5.9392-2.184534 3.413333-6.826667 5.870934-6.826666 9.352533 1.4336 6.3488 10.922666a40.96 40.96 0 0 1-17.134934 21.9136c-8.192 5.461333-9.079467 5.3248-9.762133 8.874667a349.047467 349.047467 0 0 0-6.826667 34.952533c-0.750933 9.352533 0 26.897067 0 31.675734s0.8192 9.489067-3.754666 9.489066h-12.356267c-4.027733 0-9.489067-8.055467-9.489067-16.520533s6.826667-21.162667 6.826667-24.7808 0-4.5056-0.682667-5.051733-2.4576 0-10.990933 8.6016-58.641067 48.5376-58.641067 48.5376A7.918933 7.918933 0 0 1 709.973333 662.186667a36.0448 36.0448 0 0 1-11.332266-7.236267c-1.774933-1.6384-6.826667-6.826667-1.2288-9.966933s28.0576-18.6368 39.594666-27.784534 46.557867-30.583467 52.770134-44.373333a64.170667 64.170667 0 0 0 4.778666-31.9488c-0.477867-4.096-5.9392-11.332267-5.802666-14.7456s14.336-12.151467 14.472533-14.882133-0.750933-10.24-0.750933-10.24zM869.376 433.220267a109.636267 109.636267 0 0 1 30.583467-20.0704 58.1632 58.1632 0 0 1 31.9488-1.297067s-38.638933 75.093333-44.8512 90.180267-16.384 37.341867-20.957867 49.425066-9.079467 22.254933-9.284267 25.053867 1.979733 3.549867 4.573867-1.570133a216.4736 216.4736 0 0 1 33.723733-39.5264 295.7312 295.7312 0 0 0 37.410134-40.004267c3.8912-6.826667 4.164267-11.810133 7.5776-13.653333s14.1312 9.216 14.813866 14.062933 5.5296 17.134933-12.0832 25.6-26.760533 7.645867-37.546666 12.561067a52.8384 52.8384 0 0 0-20.48 14.9504c-2.594133 3.618133-1.8432 4.3008-0.8192 5.7344a39.799467 39.799467 0 0 0 10.308266 11.537066c6.826667 5.597867 20.48 13.653333 27.648 23.005867a44.714667 44.714667 0 0 1 9.762134 22.869333c0.887467 6.3488-20.957867 3.8912-27.306667-1.8432s-12.356267-23.005867-14.5408-31.197866-1.979733-17.134933-6.826667-17.885867-13.653333 9.966933-16.725333 17.681067a321.262933 321.262933 0 0 1-13.653333 34.816c-4.437333 6.826667-7.168 11.400533-9.216 11.127466S832.853333 616.2432 832.853333 612.5568s5.3248-7.3728 13.653334-38.7072a779.8784 779.8784 0 0 1 27.306666-87.790933 238.933333 238.933333 0 0 1 17.339734-34.133334c2.4576-3.003733 5.5296-8.3968-0.8192-8.260266s-20.957867-10.4448-20.957867-10.4448z" fill="#d81e06" p-id="8540"></path></svg>