<?xml version="1.0" standalone="no"?><!DOCTYPE svg PUBLIC "-//W3C//DTD SVG 1.1//EN" "http://www.w3.org/Graphics/SVG/1.1/DTD/svg11.dtd"><svg t="1705410209520" class="icon" viewBox="0 0 1024 1024" version="1.1" xmlns="http://www.w3.org/2000/svg" p-id="4630" xmlns:xlink="http://www.w3.org/1999/xlink" width="200" height="200"><path d="M501.2 856.9c-30.5 0-61-4-90.6-12.1-57.1-15.6-109.5-46.1-151.6-88.1-32.7-32.7-58-70.8-75.2-113.3-16.6-41-25.1-84.4-25.1-128.8 0-44.5 8.4-87.8 25.1-128.8 9.9-24.3 22.4-47.2 37.4-68.5l-59.5-23.9 29.8-74.2 166.9 67.1-42.8 42.8c-102.3 102.3-102.3 268.8 0 371.1 64.9 64.9 157 91 246.4 69.7l18.5 77.8c-26 6.1-52.7 9.2-79.3 9.2zM831.1 807.4l-166.9-67.1 42.8-42.8c49.6-49.6 76.9-115.5 76.9-185.5 0-70.1-27.3-136-76.9-185.5-64.9-64.9-157-91-246.4-69.7L442.1 179c55.8-13.2 114.6-12.3 169.9 2.9 57.1 15.6 109.5 46.1 151.6 88.1 32.7 32.7 58 70.8 75.2 113.3 16.6 41 25.1 84.4 25.1 128.8s-8.4 87.8-25.1 128.8c-9.9 24.3-22.4 47.2-37.4 68.5l59.5 23.9-29.8 74.1z" p-id="4631" fill="#ffffff"></path></svg>