<?xml version="1.0" standalone="no"?><!DOCTYPE svg PUBLIC "-//W3C//DTD SVG 1.1//EN" "http://www.w3.org/Graphics/SVG/1.1/DTD/svg11.dtd"><svg t="1718885141307" class="icon" viewBox="0 0 1024 1024" version="1.1" xmlns="http://www.w3.org/2000/svg" p-id="10423" xmlns:xlink="http://www.w3.org/1999/xlink" width="32" height="32"><path d="M0 0m204.8 0l614.4 0q204.8 0 204.8 204.8l0 614.4q0 204.8-204.8 204.8l-614.4 0q-204.8 0-204.8-204.8l0-614.4q0-204.8 204.8-204.8Z" fill="#FECB31" p-id="10424"></path><path d="M91.648 294.912c2.56-2.7136 7.168-1.6896 9.1136 1.28 1.024 3.9424 0.1024 8.704 2.9184 11.9296 4.3008 4.2496 10.752 3.9936 16.3328 4.1472h266.9056a11.8272 11.8272 0 0 1 12.6464 11.264c0.2048 16.4864 0.1536 33.024 0 49.4592-0.1024 6.6048-6.4 11.776-12.6464 11.264-26.4704 0.1536-52.9408-0.1536-79.36 0.1024-7.0656-0.1024-12.288 7.168-11.4688 14.08v282.8288c0.5632 6.5536-4.608 13.0048-11.1104 13.1072-22.272 0.256-44.544 0-66.816 0.1024a12.1856 12.1856 0 0 1-13.1584-13.056V398.336c0.6656-6.4-3.6864-13.2096-10.1888-13.8752-26.368-0.8192-52.7872 0.7168-79.1552-1.024-12.6464-0.9728-26.0608-5.632-33.28-16.9984-15.5136-21.76-7.1168-52.9408 9.216-71.5264z m583.936 64.256a68.096 68.096 0 0 1 53.76 8.8576c13.8752 9.0624 26.8288 22.1184 30.0032 39.424 0.3072 5.12 7.2704 7.424 10.24 3.072 14.08-15.872 33.9968-26.4192 55.1424-26.7264 34.56-0.6144 68.2496 17.0496 90.4704 43.776 22.9376 27.4432 32.8192 64 34.3552 99.6352 1.536 36.9152-3.328 75.5712-22.1184 107.776a119.808 119.808 0 0 1-77.568 57.0368c-22.3744 5.12-47.3088 2.56-66.6112-10.9056-4.5056-2.8672-7.9872-7.1168-12.6976-9.472-4.3008-1.024-7.7312 3.3792-7.0656 7.5776v111.36c0.6656 6.656-4.864 13.2608-11.4688 13.056-22.3232 0.2048-44.6464 0.1024-66.9696 0.1024-6.912 0.6144-13.2096-5.8368-12.5952-12.9536V458.4448c-0.3072-17.8688-0.3072-36.3008-6.144-53.3504a26.8288 26.8288 0 0 0-19.968-18.688c-5.0688-0.1024-8.2944-6.6048-4.608-10.5984 10.0864-7.68 21.6576-13.4656 33.792-16.64z m118.9376 96.768c-10.1888 2.9184-20.5312 7.7312-26.9824 16.6912-4.1472 5.7856-4.096 13.312-4.096 20.224 0.1536 34.2016-0.1536 68.4544 0.1536 102.656 0.1024 15.104 15.0016 23.3472 27.6992 25.4976 29.2352 7.0656 58.7776-13.4144 71.3728-39.7824 12.0832-26.112 11.2128-57.344 1.792-84.1728-9.8816-28.16-40.7552-49.2544-69.9392-41.1136z m-262.9632-52.5312c0.6144-6.7584 3.6864-14.9504 11.4176-15.36 22.3232-0.3584 44.6976-0.1024 67.072-0.1024 6.8096-0.7168 13.1584 5.632 12.6464 12.6976v220.9792c0.5632 15.7696 4.096 34.0992 17.8176 43.4176 3.7888 3.0208 11.5712 3.328 11.1616 9.7792-0.256 4.864-5.5808 6.1952-8.9088 8.3456-19.5072 10.2912-42.0352 18.3808-64.1536 13.1072-18.176-4.096-32.5632-19.0976-39.2704-36.5568-1.6896-3.2256-2.1504-8.2944-6.4512-8.9088-4.4544-0.8192-6.4 3.84-8.6528 6.7584-10.3424 15.36-24.9344 28.9792-43.1616 33.1264-32.8704 7.3728-69.888-1.536-93.8496-26.624-26.0608-26.9824-38.144-65.4336-40.5504-102.7072-0.6144-35.84 4.4032-73.0624 21.9136-104.6016a109.056 109.056 0 0 1 56.064-49.408c23.04-9.1648 48.1792-10.24 72.6528-9.1136 11.52 0.512 23.04 2.048 34.304 5.12z m-42.24 44.9536a71.168 71.168 0 0 0-53.504 34.7648c-16.128 27.392-18.3296 61.9008-10.0864 92.3648 5.3248 18.8416 15.616 37.888 33.28 46.9504 14.1312 7.3728 30.6688 4.096 45.0048-0.768 15.7696-5.376 29.44-20.992 27.6992-38.912-0.1024-39.936 0.0512-79.9232-0.0512-119.8592 0.4608-5.7856-2.9184-12.032-8.704-13.312-10.9568-3.072-22.4768-2.4576-33.6384-1.2288z" fill="#000000" p-id="10425"></path></svg>