<?xml version="1.0" standalone="no"?><!DOCTYPE svg PUBLIC "-//W3C//DTD SVG 1.1//EN" "http://www.w3.org/Graphics/SVG/1.1/DTD/svg11.dtd"><svg t="1718885149434" class="icon" viewBox="0 0 1024 1024" version="1.1" xmlns="http://www.w3.org/2000/svg" p-id="10580" xmlns:xlink="http://www.w3.org/1999/xlink" width="32" height="32"><path d="M735.616 477.568c5.632-7.808 14.72-12.032 23.616-14.592 25.6-7.168 52.48 11.328 61.184 35.968 8.256 23.488 8.96 50.816-1.536 73.6-11.072 23.04-36.864 41.024-62.464 34.88-11.136-1.92-24.192-9.152-24.256-22.336-0.128-17.28-0.128-34.496-0.128-51.776v-38.144c0-6.016 0-12.544 3.584-17.6zM492.16 456.32a62.272 62.272 0 0 0-46.848 30.4c-14.08 24-16 54.144-8.832 80.832 4.672 16.448 13.632 33.152 29.184 41.024 12.352 6.464 26.752 3.648 39.36-0.64 13.76-4.672 25.728-18.368 24.192-33.984v-54.336-50.56c0.384-5.12-2.56-10.56-7.616-11.648a77.888 77.888 0 0 0-29.44-1.088z" fill="#18C2C4" p-id="10581"></path><path d="M64 192a128 128 0 0 1 128-128h640a128 128 0 0 1 128 128v640a128 128 0 0 1-128 128H192a128 128 0 0 1-128-128V192z m88.192 131.2c-1.728-2.624-5.76-3.52-8-1.152-14.336 16.256-21.696 43.52-8.128 62.592 6.4 9.92 18.112 14.08 29.12 14.848 13.504 0.896 27.072 0.832 40.576 0.704 9.6 0 19.2-0.064 28.736 0.192 5.696 0.64 9.472 6.528 8.96 12.16l-0.064 82.56v165.12c-0.64 6.464 5.248 12.16 11.52 11.392h19.968c12.8 0.064 25.6 0.128 38.4-0.064 5.76 0 10.24-5.76 9.792-11.456V412.608c-0.704-6.08 3.84-12.352 9.984-12.288 12.8-0.128 25.6-0.128 38.4-0.128h31.104c5.44 0.512 11.008-4.032 11.072-9.792a2135.04 2135.04 0 0 0 0-43.328 10.368 10.368 0 0 0-11.072-9.856H167.68c-4.48-0.128-9.536-0.192-12.928-3.584-1.664-1.92-1.92-4.352-2.048-6.784a22.912 22.912 0 0 0-0.512-3.712z m549.952 62.848a59.52 59.52 0 0 0-46.976-7.744 82.816 82.816 0 0 0-29.568 14.528c-3.264 3.52-0.448 9.216 4.032 9.28 8.32 1.472 14.784 8.32 17.408 16.32 4.864 14.272 5.12 29.504 5.312 44.416v293.12c-0.448 6.208 5.056 11.84 11.072 11.328h12.928l45.632-0.064c5.76 0.128 10.624-5.632 10.048-11.456v-44.992-52.48c-0.576-3.648 2.432-7.488 6.208-6.592a31.808 31.808 0 0 1 6.4 4.608c1.472 1.28 3.008 2.56 4.736 3.648 16.896 11.776 38.656 14.08 58.24 9.6a104.768 104.768 0 0 0 67.84-49.92c16.512-28.16 20.8-62.08 19.392-94.336-1.28-31.168-9.92-63.168-30.08-87.168-19.392-23.424-48.896-38.848-79.104-38.272a66.88 66.88 0 0 0-48.32 23.36c-2.56 3.84-8.64 1.792-8.96-2.688-2.752-15.168-14.08-26.56-26.24-34.496z m-163.072 17.472c-6.72 0.32-9.472 7.552-9.984 13.44a137.92 137.92 0 0 0-29.952-4.48c-21.44-1.024-43.392-0.064-63.616 7.936a95.36 95.36 0 0 0-49.024 43.264c-15.36 27.52-19.712 60.16-19.2 91.52 2.112 32.64 12.736 66.24 35.52 89.856 20.928 21.888 53.312 29.76 82.112 23.296 16-3.648 28.672-15.552 37.76-28.992l1.152-1.6c1.6-2.368 3.264-4.928 6.4-4.288 2.816 0.384 3.776 2.944 4.672 5.376 0.32 0.832 0.64 1.664 1.024 2.368 5.888 15.296 18.432 28.416 34.368 32 19.328 4.608 39.04-2.432 56.128-11.456a28.8 28.8 0 0 1 2.176-1.216c2.56-1.344 5.44-2.816 5.632-6.08 0.192-3.84-2.88-5.248-5.952-6.528-1.408-0.64-2.816-1.28-3.84-2.048-12.032-8.128-15.104-24.192-15.616-38.016v-193.28c0.448-6.208-5.12-11.776-11.072-11.2h-19.52c-13.056 0-26.112 0-39.168 0.128z" fill="#18C2C4" p-id="10582"></path></svg>