<?xml version="1.0" standalone="no"?><!DOCTYPE svg PUBLIC "-//W3C//DTD SVG 1.1//EN" "http://www.w3.org/Graphics/SVG/1.1/DTD/svg11.dtd"><svg t="1718884186600" class="icon" viewBox="0 0 2021 1024" version="1.1" xmlns="http://www.w3.org/2000/svg" p-id="5639" xmlns:xlink="http://www.w3.org/1999/xlink" width="63.15625" height="32"><path d="M377.57724601 795.69722401c12.987768-20.817161-10.119707-90.596919-10.11970699-90.59691901-93.0563-80.913868-70.856193 60.387405-70.85619301 60.38740501 65.21859199 102.87801001 80.975899 30.20951399 80.9759 30.20951398z m374.54591899-60.38740401s-104.38015401 3.27674201-80.98562999 70.45724201c0 0 157.16075001 36.63285199 172.08975098-30.19856701 0.001216-0.001216 10.83732999-62.78840199-91.10412099-40.258675z m-415.034477-312.02997099c-86.34348-91.352248 30.368851-120.78454 30.36885098-120.78454002 44.66172099-123.664764-60.73648598-110.71591799-60.73648598-110.71591699-100.715409-17.997753-40.48734198 50.338244-40.487341 50.338243-17.33121399 68.972127-70.856193 90.587188-70.856193 90.587189-139.678713-29.939493-30.367635-130.85559399-30.367635-130.85559399-5.299467-68.595071 101.214097-70.44629599 101.214097-70.446296 35.93590599-4.48332201 30.367635-40.26840599 30.367635-40.26840602-17.57934201-78.07621399-131.59146201-40.25867499-131.59146199-40.25867499-60.506603 40.217321-121.471755 191.24178199-121.47175501 191.241782-40.09933801 75.826039 60.73648598 120.77602502 60.736485 120.776026 35.766839 60.844737-60.73648598 161.04199799-60.736485 161.041998 5.228921 166.952053 101.223827 130.84586299 101.22382701 130.845864 9.400867 29.063749 131.602409 10.06983799 131.60240898 10.069838-2.78900101-23.82509799 91.102904-80.51734999 91.10290399-80.51735099 17.56961099-114.938949-30.368851-161.054161-30.36885098-161.054161z m-91.104121 171.11426901s-150.61456501 2.579795-121.471755-60.38740502c0 0 35.020024-85.69640202 50.616779-80.52708 0 0 69.45256999-80.635332 121.47175501 20.12994501 0-0.001216 20.91689899 86.542955-50.61677901 120.78453998z m-242.944726 251.63040298c-20.717424 129.690368 70.854976 80.51734999 70.854976 80.51735-5.57678599-61.673045 40.48855798-90.587188 40.488558-90.58718801V705.100305c-83.58488598-27.63944901-111.34353397 140.924216-111.343534 140.924216z m172.078803-100.65581c-30.89429702 299.53845798 70.856193 140.904755 70.856193 140.90475501 17.92842301-254.000993-70.856193-140.904755-70.856193-140.90475501z m789.581613-473.062239c42.08192499-75.73724799-50.616779-140.904755-50.61677898-140.90475399l-60.73526903-10.069839C785.340616 85.128385 661.00931401 111.26204101 661.00931401 111.26204101c-72.89837902 23.007737-202.45738498 10.06983799-202.45738501 10.06983797-92.708435 111.89087401-10.119707 221.431836-10.11970699 221.43183602v211.360781c-15.60770199 193.68291801-91.102904 291.89880898-91.102904 291.898809 8.41565499 121.82083601 80.983197 50.328513 80.983197 50.32851301 51.02545899-28.774267 70.867139-261.69051101 70.86713999-261.69051101l50.615562 20.129946v120.786972c26.443816 48.6646 76.833144 28.32544901 80.98563 20.12873002s0-30.19856801 0-30.19856802c-32.17020799-13.49618601-10.128221-110.71591799-10.12822101-110.715918-1.584853-51.962019 212.575876-30.18762101 212.57587602-30.18762 45.257713-111.055269-111.353265-80.51734999-111.35326501-80.51735098-34.10292598-3.724344-20.249144-70.45724299-20.249144-70.45724202 72.827833-37.559681 158.862369-3.41783401 161.970044 20.129945 3.108891 23.53561601 0 332.146537 0 332.14653701 28.844813 191.80006901 101.23355801 70.45724299 101.23355801 70.45724299C991.64276 846.18385799 944.46206 695.060875 944.46206 695.060875c-29.00415003-113.20692302 20.238197-422.754403 20.238197-422.754403zM650.889607 564.19555002c-102.289316-18.385756-131.59146201 10.06862202-131.591462 10.06862198-10.557579-151.112036 131.59146201-90.585972 131.591462-90.585972v80.51735002z m222.70653-171.10453802l-91.102904-10.06862199 10.11849-50.32729701c36.006452-22.42998999 30.368851-100.64608 30.36885101-100.64607901-101.075437-58.794037-91.10411998 80.51491799-91.10412 80.51491701-4.163432 112.82865001-80.98563001 90.588405-80.98563001 90.588405h-111.353265c-99.102581-69.192279-20.247928-191.233268-20.247928-191.23326801l101.23355798-20.12994598c4.720503-38.543677 151.84060599-20.12994599 151.84060602-20.12994601 91.87161299 5.60840998 101.23234201 70.458459 101.232342 70.458459v150.973377z m809.827108 291.89029399s-195.05978201 118.902907-242.94594299 171.11305301c0 0-146.869544 42.35072999-192.33524601 50.328513 0 0-128.185791 132.93670199 121.472972 70.44751199 0 0 135.010512-57.19945399 192.335245-120.77602499 0 0 169.39562201-128.154167 232.82623599-181.171944 0-0.01216298 11.177897-111.81302999-111.35326399 10.05889101z m334.05979399 2e-8c3.95300999-147.92651799-182.203376-221.431836-182.20337599-221.43183501-16.128283-0.59720901-141.72454799-10.06983799-141.724548-10.069838-94.934284-10.646369-60.731621 70.45724299-60.73162101 70.457242-267.43028199 221.103432-415.04055901 221.43305199-415.04055899 221.433052-127.167739 78.28542 20.25036 90.587188 20.250361 90.587189 127.06921801 8.57499199 475.78434199-291.88907798 475.78434201-291.889079 34.555393-17.98802201 80.981981 0 80.98198099 0-1.458357 42.816577 20.251577 60.386188 20.251577 60.38618899 199.86420999-33.16636598 91.101688 181.17316 91.10168799 181.17316-62.822459 113.026909-212.575876 100.64608-212.57587599 100.64608-91.551723-57.17026201-80.99414401 0-80.994144 0 33.61883402 230.256171 283.449097 40.25867499 283.44909701 40.25867501 161.029835-121.92057401 121.45107799-241.55083401 121.45107798-241.55083501z m-323.92792399-412.67483401c114.40620502-25.159391 30.371284-70.458459 30.37128299-70.458459-37.584007-25.159391-263.19752001 0-263.19751998 0-57.65313799 45.299068 0 70.458459 0 70.458459h232.82623699z m-1103.391047-30.188837c-38.415964 40.13826 10.11727399 110.706187 10.117275 110.706188 35.74859399 40.278136 60.73770199 10.06983799 60.737702 10.069838v-70.448729c-22.37039001-75.36749001-70.854976-50.32729699-70.854977-50.327297z m617.486997 402.604996c264.571951-12.928169 374.538621-201.30310601 374.538622-201.303106l253.077813-10.068622c85.39719001-31.43433901 80.981981-80.527081 80.981981-80.52708 21.770749-28.764537 0-130.84464699 0-130.84464801-8.672297-136.92012-70.850111-161.044431-70.85011101-161.04443099-49.090309-10.575823-70.86227399-20.12872901-70.86227399-20.128729-40.040955-15.567563-151.845471 0-151.84547199 0-58.68700198-38.26635799-192.33524601 0-192.33524503 0-110.208716 37.371153-20.25036 90.596919-20.25036097 90.59691899 413.752485-91.38387198 415.02961199 50.32729699 415.029612 50.32729701 41.02495099 163.14621599-40.490991 161.044431-40.49099101 161.04443101-109.820713-4.800779-91.101688 20.12872901-91.101687 20.12872899-37.290876 3.98341797-50.609481-10.06983799-50.609481-10.069838-72.687957-24.979377-141.725765 20.12994599-141.72576499 20.12994599h-70.86227401c-37.900248-4.849432-50.62286-60.386188-50.622861-60.38618798V151.521933c-52.958177-84.38156999-91.100472 10.06862202-91.100471 10.068622v211.37172699c49.467365 117.229263 182.203376 70.45724299 182.203375 70.45724301-24.047683 61.811705-172.083669 110.706187-172.083668 110.706187-40.11271801 6.15696599-101.23234201 0-101.23234201 0-76.625155 55.319037 10.14160001 90.596919 10.14160001 90.596919z" fill="#d81e06" p-id="5640"></path></svg>