<?xml version="1.0" standalone="no"?><!DOCTYPE svg PUBLIC "-//W3C//DTD SVG 1.1//EN" "http://www.w3.org/Graphics/SVG/1.1/DTD/svg11.dtd"><svg t="1718885599039" class="icon" viewBox="0 0 1024 1024" version="1.1" xmlns="http://www.w3.org/2000/svg" p-id="32055" xmlns:xlink="http://www.w3.org/1999/xlink" width="32" height="32"><path d="M166.848 96l196.48 452.16-5.824-189.824V96h172.736v832H360.448L163.904 475.904l8.896 189.952V928H0v-832h166.848z" fill="#27B1E2" p-id="32056"></path><path d="M534.912 927.744H365.76v-326.4h165.888v76.224H432.768v46.272h83.52v76.224H432.768v51.456h102.208v76.224zM717.76 601.344l24.256 202.304 23.104-202.304h63.616l-49.344 326.464h-65.984l-22.976-189.76h-1.152l-23.104 189.76H601.344l-50.624-326.464h64.896l22.016 202.304h1.024l24.256-202.304h54.848zM1018.752 697.536h-60.096c-0.768-10.24-3.904-17.088-9.472-20.352-3.52-4.48-8.768-6.848-15.872-6.848-13.888 0-20.992 6.272-20.992 18.752 0 11.392 12.608 22.08 38.016 32.384 49.024 19.2 73.664 52.16 73.664 98.624-1.472 69.248-31.616 104.384-90.752 105.408-51.264-3.328-80-37.376-86.4-102.08h61.12c2.24 11.392 5.632 19.904 10.624 25.6 4.864 4.48 10.752 6.72 17.856 6.72 18.24 0 27.392-7.36 27.392-22.144 0-12.416-12.224-23.232-36.864-32.384-49.984-19.2-74.88-53.376-74.88-102.144 1.472-64.704 29.12-98.112 83.392-100.416 49.152 1.28 76.992 34.304 83.264 98.88z" fill="#083070" p-id="32057"></path></svg>