<?xml version="1.0" standalone="no"?><!DOCTYPE svg PUBLIC "-//W3C//DTD SVG 1.1//EN" "http://www.w3.org/Graphics/SVG/1.1/DTD/svg11.dtd"><svg t="1718798083194" class="icon" viewBox="0 0 1024 1024" version="1.1" xmlns="http://www.w3.org/2000/svg" p-id="2410" xmlns:xlink="http://www.w3.org/1999/xlink" width="32" height="32"><path d="M512 1024C229.234 1024 0 794.766 0 512 0 229.234 229.234 0 512 0c282.766 0 512 229.234 512 512 0 282.766-229.234 512-512 512z m298.78-669.127c-18.688-18.574-48.98-18.574-67.669 0L472.405 624.185l-135.367-134.6c-18.688-18.602-48.981-18.602-67.67 0-18.687 18.575-18.687 48.698 0 67.3l169.188 168.25c18.688 18.602 48.982 18.602 67.698 0L810.78 422.171c18.688-18.574 18.688-48.725 0-67.3z" fill="#53CF8E" p-id="2411"></path></svg>